<?xml version="1.0" encoding="utf-8"?>
<!-- Generator: Adobe Illustrator 21.1.0, SVG Export Plug-In . SVG Version: 6.00 Build 0)  -->
<svg version="1.1" id="Layer_1" xmlns="http://www.w3.org/2000/svg" xmlns:xlink="http://www.w3.org/1999/xlink" x="0px" y="0px"
	 viewBox="0 0 629.7 629.7" style="enable-background:new 0 0 629.7 629.7;" xml:space="preserve">
<style type="text/css">
	.st0{fill:#091833;}
</style>
<g>
	<path class="st0" d="M123.3,469.7h334.6v-82.4H143.2V127.7h314.7V98.3h19.6c4.6,10.3,14.9,17.6,26.9,17.6
		c16.2,0,29.4-13.2,29.4-29.4c0-16.2-13.2-29.4-29.4-29.4c-12,0-22.4,7.2-26.9,17.6h-19.6V45.3H34.8v354l-0.2,0l-0.7,70.4h83.7
		C119.5,469.6,121.3,469.7,123.3,469.7z"/>
	<path class="st0" d="M522.1,274.9c-0.7,0-1.5-0.1-2.2-0.1H278.5v-33.2h316.6v-83H246.3v0h-75.9v66.5l0.3,0v132.5c0,0-0.1,0-0.1,0
		c0,0,0,0.1,0,0.1h0.1v0.2c0.1,0,0.3,0,0.4,0.1c0-0.1,0-0.1,0-0.2l2.1-0.1h314v142.4H332.2H170.6v29.7H149
		c-4.6-10.3-14.9-17.6-26.9-17.6c-16.2,0-29.4,13.2-29.4,29.4s13.2,29.4,29.4,29.4c12,0,22.4-7.2,26.9-17.6h21.7v29.7h161.5h240.6
		l22.3,0.3l0-0.1c0-0.1,0-0.2,0-0.3l1.5-211.9h0.2v-96.2H522.1z M122.1,554.3c-7,0-12.6-5.7-12.6-12.6s5.7-12.6,12.6-12.6
		s12.6,5.7,12.6,12.6S129,554.3,122.1,554.3z"/>
</g>
</svg>
